
<global>
amp_veltrack=0
ampeg_attack=0.01
ampeg_release=0.55
loop_mode=loop_continuous
loop_xfade_curve=EqP
</global>

<group>
ampeg_release=0.35
group_label=PP
xf_cccurve=gain
xfin_hicc1=42
xfout_hicc1=85
xfout_locc1=42

<region>
end=293654
hikey=C4
hivel=127
lokey=G3
loop_end=256890
loop_start=102741
loop_xfade=45212
lovel=0
pitch_keycenter=G3
sample=Basses_sustain_PP_G4.opus
</region>

<region>
end=306707
hivel=127
key=G2
loop_end=268308
loop_start=107308
loop_xfade=47222
lovel=0
sample=Basses_sustain_PP_G3.opus
</region>

<region>
end=300212
hivel=127
key=G1
loop_end=262627
loop_start=105036
loop_xfade=46222
lovel=0
sample=Basses_sustain_PP_G2.opus
</region>

<region>
end=299099
hivel=127
key=G#2
loop_end=261653
loop_start=104646
loop_xfade=46051
lovel=0
sample=Basses_sustain_PP_G#3.opus
</region>

<region>
end=299024
hivel=127
key=G#1
loop_end=261587
loop_start=104620
loop_xfade=46039
lovel=0
sample=Basses_sustain_PP_G#2.opus
</region>

<region>
end=289935
hivel=127
key=F3
loop_end=253636
loop_start=101440
loop_xfade=44640
lovel=0
sample=Basses_sustain_PP_F4.opus
</region>

<region>
end=301335
hivel=127
key=F2
loop_end=263609
loop_start=105429
loop_xfade=46395
lovel=0
sample=Basses_sustain_PP_F3.opus
</region>

<region>
end=302249
hivel=127
key=F1
loop_end=264409
loop_start=105748
loop_xfade=46536
lovel=0
sample=Basses_sustain_PP_F2.opus
</region>

<region>
end=298790
hivel=127
key=F#3
loop_end=261383
loop_start=104538
loop_xfade=46003
lovel=0
sample=Basses_sustain_PP_F#4.opus
</region>

<region>
end=303738
hivel=127
key=F#2
loop_end=265711
loop_start=106269
loop_xfade=46765
lovel=0
sample=Basses_sustain_PP_F#3.opus
</region>

<region>
end=300344
hivel=127
key=F#1
loop_end=262742
loop_start=105082
loop_xfade=46242
lovel=0
sample=Basses_sustain_PP_F#2.opus
</region>

<region>
end=301021
hivel=127
key=E3
loop_end=263334
loop_start=105319
loop_xfade=46346
lovel=0
sample=Basses_sustain_PP_E4.opus
</region>

<region>
end=301602
hivel=127
key=E2
loop_end=263843
loop_start=105522
loop_xfade=46436
lovel=0
sample=Basses_sustain_PP_E3.opus
</region>

<region>
end=296190
hivel=127
key=E1
loop_end=259108
loop_start=103628
loop_xfade=45603
lovel=0
sample=Basses_sustain_PP_E2.opus
</region>

<region>
end=296811
hivel=127
key=D3
loop_end=259651
loop_start=103846
loop_xfade=45698
lovel=0
sample=Basses_sustain_PP_D4.opus
</region>

<region>
end=303788
hivel=127
key=D2
loop_end=265755
loop_start=106287
loop_xfade=46773
lovel=0
sample=Basses_sustain_PP_D3.opus
</region>

<region>
end=301315
hivel=127
key=D1
loop_end=263591
loop_start=105422
loop_xfade=46392
lovel=0
sample=Basses_sustain_PP_D2.opus
</region>

<region>
end=288671
hivel=127
key=D#3
loop_end=252530
loop_start=100998
loop_xfade=44445
lovel=0
sample=Basses_sustain_PP_D#4.opus
</region>

<region>
end=302419
hivel=127
key=D#2
loop_end=264557
loop_start=105808
loop_xfade=46562
lovel=0
sample=Basses_sustain_PP_D#3.opus
</region>

<region>
end=296921
hivel=127
key=D#1
loop_end=259748
loop_start=103884
loop_xfade=45716
lovel=0
sample=Basses_sustain_PP_D#2.opus
</region>

<region>
end=299150
hivel=127
key=C3
loop_end=261697
loop_start=104664
loop_xfade=46058
lovel=0
sample=Basses_sustain_PP_C4.opus
</region>

<region>
end=299938
hivel=127
key=C2
loop_end=262387
loop_start=104940
loop_xfade=46180
lovel=0
sample=Basses_sustain_PP_C3.opus
</region>

<region>
end=299970
hivel=127
key=C1
loop_end=262415
loop_start=104951
loop_xfade=46185
lovel=0
sample=Basses_sustain_PP_C2.opus
</region>

<region>
end=300734
hivel=127
key=C#3
loop_end=263083
loop_start=105218
loop_xfade=46302
lovel=0
sample=Basses_sustain_PP_C#4.opus
</region>

<region>
end=300941
hivel=127
key=C#2
loop_end=263264
loop_start=105291
loop_xfade=46334
lovel=0
sample=Basses_sustain_PP_C#3.opus
</region>

<region>
end=301240
hivel=127
key=C#1
loop_end=263526
loop_start=105395
loop_xfade=46380
lovel=0
sample=Basses_sustain_PP_C#2.opus
</region>

<region>
end=303200
hivel=127
key=B2
loop_end=265240
loop_start=106081
loop_xfade=46682
lovel=0
sample=Basses_sustain_PP_B3.opus
</region>

<region>
end=302327
hivel=127
key=B1
loop_end=264477
loop_start=105776
loop_xfade=46548
lovel=0
sample=Basses_sustain_PP_B2.opus
</region>

<region>
end=294500
hivel=127
key=A2
loop_end=257630
loop_start=103037
loop_xfade=45343
lovel=0
offset=2164
sample=Basses_sustain_PP_A3.opus
</region>

<region>
end=302482
hivel=127
key=A1
loop_end=264612
loop_start=105830
loop_xfade=46571
lovel=0
sample=Basses_sustain_PP_A2.opus
</region>

<region>
end=311543
hivel=127
key=A#2
loop_end=272539
loop_start=109000
loop_xfade=47967
lovel=0
offset=21254
sample=Basses_sustain_PP_A#3.opus
</region>

<region>
end=297058
hivel=127
key=A#1
loop_end=259867
loop_start=103932
loop_xfade=45736
lovel=0
sample=Basses_sustain_PP_A#2.opus
</region>
</group>

<group>
ampeg_release=0.35
group_label=MF
xf_cccurve=gain
xfin_hicc1=85
xfin_locc1=42
xfout_hicc1=127
xfout_locc1=85

<region>
end=303219
hikey=C4
hivel=127
lokey=G3
loop_end=265257
loop_start=106088
loop_xfade=46685
lovel=0
pitch_keycenter=G3
sample=Basses_sustain_MF_G4.opus
</region>

<region>
end=303569
hivel=127
key=G2
loop_end=265563
loop_start=106210
loop_xfade=46739
lovel=0
sample=Basses_sustain_MF_G3.opus
</region>

<region>
end=303219
hivel=127
key=G1
loop_end=265257
loop_start=106088
loop_xfade=46685
lovel=0
sample=Basses_sustain_MF_G2.opus
</region>

<region>
end=301247
hivel=127
key=G#2
loop_end=263532
loop_start=105398
loop_xfade=46381
lovel=0
sample=Basses_sustain_MF_G#3.opus
</region>

<region>
end=301882
hivel=127
key=G#1
loop_end=264087
loop_start=105620
loop_xfade=46479
lovel=0
sample=Basses_sustain_MF_G#2.opus
</region>

<region>
end=301480
hivel=127
key=F3
loop_end=263736
loop_start=105479
loop_xfade=46417
lovel=0
sample=Basses_sustain_MF_F4.opus
</region>

<region>
end=303323
hivel=127
key=F2
loop_end=265348
loop_start=106124
loop_xfade=46701
lovel=0
sample=Basses_sustain_MF_F3.opus
</region>

<region>
end=293966
hivel=127
key=F1
loop_end=257162
loop_start=102850
loop_xfade=45260
lovel=0
sample=Basses_sustain_MF_F2.opus
</region>

<region>
end=302470
hivel=127
key=F#3
loop_end=264602
loop_start=105826
loop_xfade=46570
lovel=0
sample=Basses_sustain_MF_F#4.opus
</region>

<region>
end=301985
hivel=127
key=F#2
loop_end=264178
loop_start=105656
loop_xfade=46495
lovel=0
sample=Basses_sustain_MF_F#3.opus
</region>

<region>
end=301857
hivel=127
key=F#1
loop_end=264066
loop_start=105611
loop_xfade=46475
lovel=0
sample=Basses_sustain_MF_F#2.opus
</region>

<region>
end=303284
hivel=127
key=E3
loop_end=265314
loop_start=106110
loop_xfade=46695
lovel=0
sample=Basses_sustain_MF_E4.opus
</region>

<region>
end=295612
hivel=127
key=E2
loop_end=258602
loop_start=103426
loop_xfade=45514
lovel=0
sample=Basses_sustain_MF_E3.opus
</region>

<region>
end=302986
hivel=127
key=E1
loop_end=265053
loop_start=106006
loop_xfade=46649
lovel=0
sample=Basses_sustain_MF_E2.opus
</region>

<region>
end=301617
hivel=127
key=D3
loop_end=263856
loop_start=105527
loop_xfade=46439
lovel=0
sample=Basses_sustain_MF_D4.opus
</region>

<region>
end=302190
hivel=127
key=D2
loop_end=264357
loop_start=105728
loop_xfade=46526
lovel=0
sample=Basses_sustain_MF_D3.opus
</region>

<region>
end=302914
hivel=127
key=D1
loop_end=264990
loop_start=105981
loop_xfade=46638
lovel=0
sample=Basses_sustain_MF_D2.opus
</region>

<region>
end=298324
hivel=127
key=D#3
loop_end=260975
loop_start=104375
loop_xfade=45931
lovel=0
sample=Basses_sustain_MF_D#4.opus
</region>

<region>
end=295826
hivel=127
key=D#2
loop_end=258790
loop_start=103501
loop_xfade=45547
lovel=0
sample=Basses_sustain_MF_D#3.opus
</region>

<region>
end=305314
hivel=127
key=D#1
loop_end=267090
loop_start=106821
loop_xfade=47008
lovel=0
sample=Basses_sustain_MF_D#2.opus
</region>

<region>
end=305182
hivel=127
key=C3
loop_end=266974
loop_start=106774
loop_xfade=46987
lovel=0
offset=855
sample=Basses_sustain_MF_C4.opus
</region>

<region>
end=303667
hivel=127
key=C2
loop_end=265649
loop_start=106244
loop_xfade=46754
lovel=0
sample=Basses_sustain_MF_C3.opus
</region>

<region>
end=301366
hivel=127
key=C1
loop_end=263636
loop_start=105439
loop_xfade=46400
lovel=0
sample=Basses_sustain_MF_C2.opus
</region>

<region>
end=295607
hivel=127
key=C#3
loop_end=258598
loop_start=103424
loop_xfade=45513
lovel=0
sample=Basses_sustain_MF_C#4.opus
</region>

<region>
end=302420
hivel=127
key=C#2
loop_end=264558
loop_start=105808
loop_xfade=46562
lovel=0
sample=Basses_sustain_MF_C#3.opus
</region>

<region>
end=294092
hivel=127
key=C#1
loop_end=257273
loop_start=102894
loop_xfade=45280
lovel=0
sample=Basses_sustain_MF_C#2.opus
</region>

<region>
end=301479
hivel=127
key=B2
loop_end=263735
loop_start=105479
loop_xfade=46417
lovel=0
sample=Basses_sustain_MF_B3.opus
</region>

<region>
end=301470
hivel=127
key=B1
loop_end=263727
loop_start=105476
loop_xfade=46416
lovel=0
sample=Basses_sustain_MF_B2.opus
</region>

<region>
end=305074
hivel=127
key=A2
loop_end=266880
loop_start=106737
loop_xfade=46971
lovel=0
sample=Basses_sustain_MF_A3.opus
</region>

<region>
end=299772
hivel=127
key=A1
loop_end=262242
loop_start=104882
loop_xfade=46154
lovel=0
sample=Basses_sustain_MF_A2.opus
</region>

<region>
end=302889
hivel=127
key=A#2
loop_end=264968
loop_start=105972
loop_xfade=46634
lovel=0
sample=Basses_sustain_MF_A#3.opus
</region>

<region>
end=300785
hivel=127
key=A#1
loop_end=263128
loop_start=105236
loop_xfade=46310
lovel=0
sample=Basses_sustain_MF_A#2.opus
</region>
</group>

<group>
ampeg_release=0.35
group_label=FF
xf_cccurve=gain
xfin_hicc1=127
xfin_locc1=85
xfout_hicc1=127
xfout_locc1=127

<region>
end=307155
hikey=C4
hivel=127
lokey=G3
loop_end=268700
loop_start=107465
loop_xfade=47291
lovel=0
pitch_keycenter=G3
sample=Basses_sustain_FF_G4.opus
</region>

<region>
end=301689
hivel=127
key=G2
loop_end=263919
loop_start=105552
loop_xfade=46450
lovel=0
sample=Basses_sustain_FF_G3.opus
</region>

<region>
end=299518
hivel=127
key=G1
loop_end=262019
loop_start=104793
loop_xfade=46115
lovel=0
sample=Basses_sustain_FF_G2.opus
</region>

<region>
end=302898
hivel=127
key=G#2
loop_end=264976
loop_start=105975
loop_xfade=46636
lovel=0
sample=Basses_sustain_FF_G#3.opus
</region>

<region>
end=304277
hivel=127
key=G#1
loop_end=266183
loop_start=106458
loop_xfade=46848
lovel=0
sample=Basses_sustain_FF_G#2.opus
</region>

<region>
end=303376
hivel=127
key=F3
loop_end=265394
loop_start=106143
loop_xfade=46709
lovel=0
sample=Basses_sustain_FF_F4.opus
</region>

<region>
end=300331
hivel=127
key=F2
loop_end=262731
loop_start=105077
loop_xfade=46241
lovel=0
sample=Basses_sustain_FF_F3.opus
</region>

<region>
end=303489
hivel=127
key=F1
loop_end=265493
loop_start=106182
loop_xfade=46727
lovel=0
sample=Basses_sustain_FF_F2.opus
</region>

<region>
end=302301
hivel=127
key=F#3
loop_end=264454
loop_start=105766
loop_xfade=46544
lovel=0
sample=Basses_sustain_FF_F#4.opus
</region>

<region>
end=301022
hivel=127
key=F#2
loop_end=263335
loop_start=105319
loop_xfade=46347
lovel=0
sample=Basses_sustain_FF_F#3.opus
</region>

<region>
end=302976
hivel=127
key=F#1
loop_end=265044
loop_start=106003
loop_xfade=46647
lovel=0
sample=Basses_sustain_FF_F#2.opus
</region>

<region>
end=302702
hivel=127
key=E3
loop_end=264805
loop_start=105907
loop_xfade=46605
lovel=0
sample=Basses_sustain_FF_E4.opus
</region>

<region>
end=304620
hivel=127
key=E2
loop_end=266483
loop_start=106578
loop_xfade=46901
lovel=0
sample=Basses_sustain_FF_E3.opus
</region>

<region>
end=304470
hivel=127
key=E1
loop_end=266351
loop_start=106525
loop_xfade=46878
lovel=0
sample=Basses_sustain_FF_E2.opus
</region>

<region>
end=304592
hivel=127
key=D3
loop_end=266458
loop_start=106568
loop_xfade=46896
lovel=0
sample=Basses_sustain_FF_D4.opus
</region>

<region>
end=309665
hivel=127
key=D2
loop_end=270896
loop_start=108343
loop_xfade=47677
lovel=0
sample=Basses_sustain_FF_D3.opus
</region>

<region>
end=305402
hivel=127
key=D1
loop_end=267167
loop_start=106851
loop_xfade=47021
lovel=0
sample=Basses_sustain_FF_D2.opus
</region>

<region>
end=299493
hivel=127
key=D#3
loop_end=261998
loop_start=104784
loop_xfade=46111
lovel=0
sample=Basses_sustain_FF_D#4.opus
</region>

<region>
end=300437
hivel=127
key=D#2
loop_end=262823
loop_start=105114
loop_xfade=46257
lovel=0
sample=Basses_sustain_FF_D#3.opus
</region>

<region>
end=305438
hivel=127
key=D#1
loop_end=267198
loop_start=106864
loop_xfade=47027
lovel=0
sample=Basses_sustain_FF_D#2.opus
</region>

<region>
end=304597
hivel=127
key=C3
loop_end=266463
loop_start=106570
loop_xfade=46897
lovel=0
sample=Basses_sustain_FF_C4.opus
</region>

<region>
end=305618
hivel=127
key=C2
loop_end=267356
loop_start=106927
loop_xfade=47054
lovel=0
sample=Basses_sustain_FF_C3.opus
</region>

<region>
end=305956
hivel=127
key=C1
loop_end=267651
loop_start=107045
loop_xfade=47106
lovel=0
sample=Basses_sustain_FF_C2.opus
</region>

<region>
end=304285
hivel=127
key=C#3
loop_end=266190
loop_start=106461
loop_xfade=46849
lovel=0
sample=Basses_sustain_FF_C#4.opus
</region>

<region>
end=304022
hivel=127
key=C#2
loop_end=265960
loop_start=106369
loop_xfade=46809
lovel=0
sample=Basses_sustain_FF_C#3.opus
</region>

<region>
end=306753
hivel=127
key=C#1
loop_end=268349
loop_start=107324
loop_xfade=47229
lovel=0
sample=Basses_sustain_FF_C#2.opus
</region>

<region>
end=306992
hivel=127
key=B2
loop_end=268558
loop_start=107408
loop_xfade=47266
lovel=0
sample=Basses_sustain_FF_B3.opus
</region>

<region>
end=306417
hivel=127
key=B1
loop_end=268055
loop_start=107207
loop_xfade=47177
lovel=0
sample=Basses_sustain_FF_B2.opus
</region>

<region>
end=307524
hivel=127
key=A2
loop_end=269023
loop_start=107594
loop_xfade=47348
lovel=0
sample=Basses_sustain_FF_A3.opus
</region>

<region>
end=305111
hivel=127
key=A1
loop_end=266912
loop_start=106750
loop_xfade=46976
lovel=0
sample=Basses_sustain_FF_A2.opus
</region>

<region>
end=307165
hivel=127
key=A#2
loop_end=268709
loop_start=107468
loop_xfade=47293
lovel=0
sample=Basses_sustain_FF_A#3.opus
</region>

<region>
end=301236
hivel=127
key=A#1
loop_end=278361
loop_start=105394
loop_xfade=46380
lovel=0
sample=Basses_sustain_FF_A#2.opus
</region>
</group>

<group>
ampeg_attack=0.01
ampeg_release=1.20
group_label=Falls
rt_decay=0.000000
trigger=release

<region>
end=76885
hikey=A#1
hivel=127
lokey=A1
lovel=85
offset=4293
pitch_keycenter=A#1
sample=Basses_falls_FF_A#2.opus
</region>

<region>
end=80584
hikey=A#2
hivel=127
lokey=A2
lovel=85
offset=4943
pitch_keycenter=A#2
sample=Basses_falls_FF_A#3.opus
</region>

<region>
end=86776
hikey=C2
hivel=127
lokey=B1
lovel=85
offset=4299
pitch_keycenter=C2
sample=Basses_falls_FF_C3.opus
</region>

<region>
end=86117
hikey=C3
hivel=127
lokey=B2
lovel=85
offset=5003
pitch_keycenter=C3
sample=Basses_falls_FF_C4.opus
</region>

<region>
end=83356
hikey=D2
hivel=127
lokey=C#2
lovel=85
offset=5707
pitch_keycenter=D2
sample=Basses_falls_FF_D3.opus
</region>

<region>
end=85802
hikey=D3
hivel=127
lokey=C#3
lovel=85
offset=4916
pitch_keycenter=D3
sample=Basses_falls_FF_D4.opus
</region>

<region>
end=75366
hivel=127
key=E1
lovel=85
offset=3467
sample=Basses_falls_FF_E2.opus
</region>

<region>
end=99158
hikey=E2
hivel=127
lokey=D#2
lovel=85
offset=5921
pitch_keycenter=E2
sample=Basses_falls_FF_E3.opus
</region>

<region>
end=85913
hikey=E3
hivel=127
lokey=D#3
lovel=85
offset=4787
pitch_keycenter=E3
sample=Basses_falls_FF_E4.opus
</region>

<region>
end=74647
hikey=F#1
hivel=127
lokey=F1
lovel=85
offset=3033
pitch_keycenter=F#1
sample=Basses_falls_FF_F#2.opus
</region>

<region>
end=90451
hikey=F#2
hivel=127
lokey=F2
lovel=85
offset=5825
pitch_keycenter=F#2
sample=Basses_falls_FF_F#3.opus
</region>

<region>
end=90822
hikey=F#3
hivel=127
lokey=F3
lovel=85
offset=4633
pitch_keycenter=F#3
sample=Basses_falls_FF_F#4.opus
</region>

<region>
end=88334
hikey=G#1
hivel=127
lokey=G1
lovel=85
offset=6707
pitch_keycenter=G#1
sample=Basses_falls_FF_G#2.opus
</region>

<region>
end=81432
hikey=G#2
hivel=127
lokey=G2
lovel=85
offset=3314
pitch_keycenter=G#2
sample=Basses_falls_FF_G#3.opus
</region>

<region>
end=82259
hikey=C4
hivel=127
lokey=G3
lovel=85
offset=3435
pitch_keycenter=G#3
sample=Basses_falls_FF_G#4.opus
</region>

<region>
end=152620
hikey=A#1
hivel=84
lokey=A1
lovel=43
offset=10796
pitch_keycenter=A#1
sample=Basses_falls_MF_A#2.opus
</region>

<region>
end=173431
hikey=A#2
hivel=84
lokey=A2
lovel=43
offset=5484
pitch_keycenter=A#2
sample=Basses_falls_MF_A#3.opus
</region>

<region>
end=89263
hikey=C2
hivel=84
lokey=B1
lovel=43
offset=7262
pitch_keycenter=C2
sample=Basses_falls_MF_C3.opus
</region>

<region>
end=94319
hikey=C3
hivel=84
lokey=B2
lovel=43
offset=5037
pitch_keycenter=C3
sample=Basses_falls_MF_C4.opus
</region>

<region>
end=90450
hikey=D2
hivel=84
lokey=C#2
lovel=43
offset=3820
pitch_keycenter=D2
sample=Basses_falls_MF_D3.opus
</region>

<region>
end=182399
hikey=D3
hivel=84
lokey=C#3
lovel=43
offset=15521
pitch_keycenter=D3
sample=Basses_falls_MF_D4.opus
</region>

<region>
end=178438
hivel=84
key=E1
lovel=43
offset=13880
sample=Basses_falls_MF_E2.opus
</region>

<region>
end=135701
hikey=E2
hivel=84
lokey=D#2
lovel=43
offset=8254
pitch_keycenter=E2
sample=Basses_falls_MF_E3.opus
</region>

<region>
end=130570
hikey=E3
hivel=84
lokey=D#3
lovel=43
offset=5143
pitch_keycenter=E3
sample=Basses_falls_MF_E4.opus
</region>

<region>
end=131638
hikey=F#1
hivel=84
lokey=F1
lovel=43
offset=4660
pitch_keycenter=F#1
sample=Basses_falls_MF_F#2.opus
</region>

<region>
end=88050
hikey=F#2
hivel=84
lokey=F2
lovel=43
offset=4750
pitch_keycenter=F#2
sample=Basses_falls_MF_F#3.opus
</region>

<region>
end=99165
hikey=F#3
hivel=84
lokey=F3
lovel=43
offset=6892
pitch_keycenter=F#3
sample=Basses_falls_MF_F#4.opus
</region>

<region>
end=173013
hikey=G#1
hivel=84
lokey=G1
lovel=43
offset=3747
pitch_keycenter=G#1
sample=Basses_falls_MF_G#2.opus
</region>

<region>
end=93879
hikey=G#2
hivel=84
lokey=G2
lovel=43
offset=2300
pitch_keycenter=G#2
sample=Basses_falls_MF_G#3.opus
</region>

<region>
end=95164
hikey=C4
hivel=84
lokey=G3
lovel=43
offset=4869
pitch_keycenter=G#3
sample=Basses_falls_MF_G#4.opus
</region>

<region>
end=180615
hikey=A#1
hivel=42
lokey=A1
lovel=0
offset=14649
pitch_keycenter=A#1
sample=Basses_falls_PP_A#2.opus
</region>

<region>
end=181591
hikey=A#2
hivel=42
lokey=A2
lovel=0
offset=18604
pitch_keycenter=A#2
sample=Basses_falls_PP_A#3.opus
</region>

<region>
end=176695
hikey=C2
hivel=42
lokey=B1
lovel=0
offset=8093
pitch_keycenter=C2
sample=Basses_falls_PP_C3.opus
</region>

<region>
end=182399
hikey=C3
hivel=42
lokey=B2
lovel=0
offset=19111
pitch_keycenter=C3
sample=Basses_falls_PP_C4.opus
</region>

<region>
end=176231
hikey=D2
hivel=42
lokey=C#2
lovel=0
offset=10312
pitch_keycenter=D2
sample=Basses_falls_PP_D3.opus
</region>

<region>
end=182399
hikey=D3
hivel=42
lokey=C#3
lovel=0
offset=22096
pitch_keycenter=D3
sample=Basses_falls_PP_D4.opus
</region>

<region>
end=182400
hivel=42
key=E1
lovel=0
offset=19144
sample=Basses_falls_PP_E2.opus
</region>

<region>
end=168949
hikey=E2
hivel=42
lokey=D#2
lovel=0
offset=6350
pitch_keycenter=E2
sample=Basses_falls_PP_E3.opus
</region>

<region>
end=181421
hikey=E3
hivel=42
lokey=D#3
lovel=0
offset=17445
pitch_keycenter=E3
sample=Basses_falls_PP_E4.opus
</region>

<region>
end=169217
hikey=F#1
hivel=42
lokey=F1
lovel=0
offset=8058
pitch_keycenter=F#1
sample=Basses_falls_PP_F#2.opus
</region>

<region>
end=182400
hikey=F#2
hivel=42
lokey=F2
lovel=0
offset=16127
pitch_keycenter=F#2
sample=Basses_falls_PP_F#3.opus
</region>

<region>
end=182399
hikey=F#3
hivel=42
lokey=F3
lovel=0
offset=18865
pitch_keycenter=F#3
sample=Basses_falls_PP_F#4.opus
</region>

<region>
end=91439
hikey=G#1
hivel=42
lokey=G1
lovel=0
offset=7319
pitch_keycenter=G#1
sample=Basses_falls_PP_G#2.opus
</region>

<region>
end=174905
hikey=G#2
hivel=42
lokey=G2
lovel=0
offset=12909
pitch_keycenter=G#2
sample=Basses_falls_PP_G#3.opus
</region>

<region>
end=182399
hikey=C4
hivel=42
lokey=G3
lovel=0
offset=21145
pitch_keycenter=G#3
sample=Basses_falls_PP_G#4.opus
</region>
</group>